<?xml version="1.0" encoding="UTF-8"?>
<!DOCTYPE svg PUBLIC "-//W3C//DTD SVG 1.1//EN" "http://www.w3.org/Graphics/SVG/1.1/DTD/svg11.dtd">
<svg xmlns="http://www.w3.org/2000/svg" version="1.1" width="126px" height="150px" style="shape-rendering:geometricPrecision; text-rendering:geometricPrecision; image-rendering:optimizeQuality; fill-rule:evenodd; clip-rule:evenodd" xmlns:xlink="http://www.w3.org/1999/xlink">
<g><path style="opacity:0.005" fill="#66002d" d="M 61.5,-0.5 C 62.5,-0.5 63.5,-0.5 64.5,-0.5C 63.5,0.833333 62.5,0.833333 61.5,-0.5 Z"/></g>
<g><path style="opacity:0.958" fill="#7f0f07" d="M 61.5,2.5 C 64.2062,2.5751 66.8728,2.90843 69.5,3.5C 69.6006,13.8518 69.2673,24.1851 68.5,34.5C 68.5,34.8333 68.5,35.1667 68.5,35.5C 67.2921,36.2341 65.9587,36.5674 64.5,36.5C 64.6664,27.4938 64.4998,18.4938 64,9.5C 63.2564,7.1003 62.4231,4.76697 61.5,2.5 Z"/></g>
<g><path style="opacity:0.996" fill="#a33829" d="M 61.5,2.5 C 62.4231,4.76697 63.2564,7.1003 64,9.5C 64.4998,18.4938 64.6664,27.4938 64.5,36.5C 63.8333,36.5 63.1667,36.5 62.5,36.5C 60.4974,31.8289 58.4974,27.1622 56.5,22.5C 56.6716,21.5084 56.3382,20.8417 55.5,20.5C 54.976,16.0696 53.976,11.7362 52.5,7.5C 54.4871,4.15874 57.4871,2.49207 61.5,2.5 Z"/></g>
<g><path style="opacity:0.869" fill="#1abd01" d="M 55.5,20.5 C 55.3284,21.4916 55.6618,22.1583 56.5,22.5C 58.4974,27.1622 60.4974,31.8289 62.5,36.5C 59.6275,36.1977 56.9608,35.531 54.5,34.5C 50.0262,29.2034 44.6928,24.0367 38.5,19C 33.2076,14.5282 27.5409,10.6948 21.5,7.5C 34.434,6.16402 45.7674,10.4974 55.5,20.5 Z"/></g>
<g><path style="opacity:0.902" fill="#17d600" d="M 21.5,7.5 C 27.5409,10.6948 33.2076,14.5282 38.5,19C 44.6928,24.0367 50.0262,29.2034 54.5,34.5C 51.7938,34.4249 49.1272,34.0916 46.5,33.5C 42.7852,33.577 39.1185,33.2436 35.5,32.5C 28.5058,25.5155 23.8391,17.1822 21.5,7.5 Z"/></g>
<g><path style="opacity:0.989" fill="#d80200" d="M 35.5,32.5 C 39.1185,33.2436 42.7852,33.577 46.5,33.5C 53.9275,36.6516 61.5941,39.6516 69.5,42.5C 69.8333,42.1667 70.1667,41.8333 70.5,41.5C 69.2528,39.677 68.5861,37.677 68.5,35.5C 68.5,35.1667 68.5,34.8333 68.5,34.5C 76.419,32.9819 84.419,32.3152 92.5,32.5C 94.7005,34.6404 97.3672,36.1404 100.5,37C 107.806,45.1949 110.806,54.8615 109.5,66C 109.243,79.3092 107.743,92.4759 105,105.5C 102.968,113.27 99.9683,120.603 96,127.5C 92.9843,131.092 89.151,133.258 84.5,134C 79.8333,134.667 75.1667,134.667 70.5,134C 69.0874,132.878 68.2541,131.712 68,130.5C 58.3393,135.193 48.1726,137.027 37.5,136C 31.8126,135.072 27.3126,132.239 24,127.5C 21.3084,122.097 18.1417,117.097 14.5,112.5C 11.6122,104.065 9.61217,95.3981 8.5,86.5C 9.14713,85.7261 9.48046,84.7261 9.5,83.5C 8.95454,77.0049 8.28788,70.6716 7.5,64.5C 8.30863,56.2595 10.8086,48.5928 15,41.5C 20.4889,35.5014 27.3223,32.5014 35.5,32.5 Z"/></g>
<g><path style="opacity:1" fill="#a70600" d="M 46.5,33.5 C 49.1272,34.0916 51.7938,34.4249 54.5,34.5C 56.9608,35.531 59.6275,36.1977 62.5,36.5C 63.1667,36.5 63.8333,36.5 64.5,36.5C 65.9587,36.5674 67.2921,36.2341 68.5,35.5C 68.5861,37.677 69.2528,39.677 70.5,41.5C 70.1667,41.8333 69.8333,42.1667 69.5,42.5C 61.5941,39.6516 53.9275,36.6516 46.5,33.5 Z"/></g>
<g><path style="opacity:0.995" fill="#a40100" d="M 92.5,32.5 C 101.486,33.3228 108.153,37.6561 112.5,45.5C 116.686,57.4684 118.352,69.8017 117.5,82.5C 116.596,83.209 116.263,84.209 116.5,85.5C 115.946,102.656 111.446,118.656 103,133.5C 96.4671,141.682 87.9671,145.349 77.5,144.5C 67.9394,142.951 58.4394,143.284 49,145.5C 37.9634,145.109 29.2968,140.442 23,131.5C 19.1016,125.636 16.2683,119.303 14.5,112.5C 18.1417,117.097 21.3084,122.097 24,127.5C 27.3126,132.239 31.8126,135.072 37.5,136C 48.1726,137.027 58.3393,135.193 68,130.5C 68.2541,131.712 69.0874,132.878 70.5,134C 75.1667,134.667 79.8333,134.667 84.5,134C 89.151,133.258 92.9843,131.092 96,127.5C 99.9683,120.603 102.968,113.27 105,105.5C 107.743,92.4759 109.243,79.3092 109.5,66C 110.806,54.8615 107.806,45.1949 100.5,37C 97.3672,36.1404 94.7005,34.6404 92.5,32.5 Z"/></g>
<g><path style="opacity:1" fill="#fc0001" d="M 30.5,38.5 C 39.2096,37.9023 46.7096,40.569 53,46.5C 58.192,60.0034 53.692,68.5034 39.5,72C 28.1268,73.5658 20.2935,69.0658 16,58.5C 14.4914,52.7159 15.9914,47.8825 20.5,44C 23.7667,41.8703 27.1,40.037 30.5,38.5 Z"/></g>
<g><path style="opacity:0.165" fill="#de5f5b" d="M 7.5,64.5 C 8.28788,70.6716 8.95454,77.0049 9.5,83.5C 9.48046,84.7261 9.14713,85.7261 8.5,86.5C 7.72139,79.5247 7.38806,72.1913 7.5,64.5 Z"/></g>
<g><path style="opacity:1" fill="#fb0001" d="M 16.5,73.5 C 20.8027,72.7962 24.3027,74.1295 27,77.5C 27.6816,81.1802 26.1816,83.6802 22.5,85C 17.2027,86.5213 13.8693,84.688 12.5,79.5C 12.8662,76.7441 14.1995,74.7441 16.5,73.5 Z"/></g>
<g><path style="opacity:0.007" fill="#c9bfbf" d="M 117.5,82.5 C 120.1,83.9689 119.767,84.9689 116.5,85.5C 116.263,84.209 116.596,83.209 117.5,82.5 Z"/></g>
</svg>
